<svg xmlns="http://www.w3.org/2000/svg" viewBox="0 0 48 48" role="img" aria-label="Pi">
  <!-- v2 brand icon: parchment squircle, blue "p" + gold "i", Roman rule with diamond -->
  <!-- Letterforms outlined from Palatino Linotype (v2 font stack fallback) - no font dependency -->
  <rect x="0.75" y="0.75" width="46.5" height="46.5" rx="10.5" fill="#FDFBF3" stroke="#0A3D9C" stroke-width="1.3"/>
  <rect x="2.625" y="2.625" width="42.75" height="42.75" rx="9" fill="none" stroke="#D9A00A" stroke-width="0.4" opacity="0.7"/>
  <path transform="translate(13.127 32.344) scale(0.01144409 -0.01144409)" d="M1156 580Q1156 457 1112 345Q1080 263 1028 206Q1005 181 942 134Q876 81 777 6Q718 -33 627 -33Q540 -33 453 -1V-376Q453 -422 464 -437Q470 -445 491 -450Q507 -454 619 -462L630 -472V-534L620 -544Q485 -536 313 -536Q187 -536 61 -544L51 -534V-474L61 -463Q162 -460 177 -447Q187 -438 189 -428Q193 -409 197 -330Q200 -270 201 -177L203 -22V559Q203 569 197 707Q194 772 186.5 790.5Q179 809 145 814Q133 816 57 819L47 829V885L57 896Q248 913 444 979L466 966Q466 923 457 793Q524 849 626 932Q675 969 777 969Q1025 969 1115 779Q1156 692 1156 580ZM899 457Q899 675 784 751Q723 791 657 791Q534 791 453 690V194Q544 98 653 98Q816 98 871 267Q899 352 899 457Z" fill="#0B4DA6"/>
  <path transform="translate(27.068 32.344) scale(0.01144409 -0.01144409)" d="M487 1308Q487 1244 442.0 1198.5Q397 1153 334 1153Q270 1153 225.0 1198.5Q180 1244 180 1308Q180 1374 225.5 1419.0Q271 1464 334 1464Q396 1464 441.5 1419.0Q487 1374 487 1308ZM625 3 615 -7Q520 0 341 0Q162 0 68 -7L58 3V64L68 74Q164 77 187 89Q207 98 209 137Q216 267 216 416V559Q216 753 201 789Q193 809 158 814Q146 816 71 819L61 829V885L71 896Q263 913 458 979L479 966Q466 784 466 659V340Q466 267 473 137Q475 98 495 89Q518 77 614 74L625 64ZM341 -78Z" fill="#D9A00A"/>
  <g>
    <rect x="13.7" y="35.8" width="10.3" height="0.56" rx="0.28" fill="#0B4DA6"/>
    <rect x="24" y="35.8" width="10.3" height="0.56" rx="0.28" fill="#D9A00A"/>
    <g transform="translate(24 36.1) rotate(45)">
      <rect x="-0.94" y="-0.94" width="1.88" height="1.88" fill="#FDFBF3" stroke="#D9A00A" stroke-width="0.47"/>
    </g>
  </g>
</svg>
